JetBrainsMoro-Italic.ufo
<glyph name="slash" format="2">
  <advance width="600"/>
  <unicode hex="002F"/>
  <outline>
    <contour>
      <point x="14" y="-110" type="line"/>
      <point x="111" y="-110" type="line"/>
      <point x="612" y="830" type="line"/>
      <point x="515" y="830" type="line"/>
    </contour>
  </outline>
</glyph>
<glyph name="E" format="2">
  <advance width="600"/>
  <unicode hex="0045"/>
  <anchor x="320" y="0" name="bottom"/>
  <anchor x="390" y="0" name="ogonek"/>
  <anchor x="392" y="730" name="top"/>
  <anchor x="92" y="730" name="topleft"/>
  <outline>
    <contour>
      <point x="56" y="0" type="line"/>
      <point x="476" y="0" type="line"/>
      <point x="489" y="82" type="line"/>
      <point x="158" y="82" type="line"/>
      <point x="199" y="341" type="line"/>
      <point x="495" y="341" type="line"/>
      <point x="508" y="422" type="line"/>
      <point x="212" y="422" type="line"/>
      <point x="248" y="648" type="line"/>
      <point x="579" y="648" type="line"/>
      <point x="592" y="730" type="line"/>
      <point x="172" y="730" type="line"/>
    </contour>
  </outline>
</glyph>
<glyph name="G" format="2">
  <advance width="600"/>
  <unicode hex="0047"/>
  <anchor x="260" y="0" name="bottom"/>
  <anchor x="372" y="730" name="top"/>
  <outline>
    <contour>
      <point x="258" y="-10" type="curve" smooth="yes"/>
      <point x="389" y="-10"/>
      <point x="486" y="71"/>
      <point x="506" y="200" type="curve" smooth="yes"/>
      <point x="533" y="372" type="line"/>
      <point x="295" y="372" type="line"/>
      <point x="282" y="290" type="line"/>
      <point x="430" y="290" type="line"/>
      <point x="416" y="200" type="line" smooth="yes"/>
      <point x="403" y="117"/>
      <point x="349" y="70"/>
      <point x="271" y="70" type="curve" smooth="yes"/>
      <point x="192" y="70"/>
      <point x="153" y="117"/>
      <point x="166" y="200" type="curve" smooth="yes"/>
      <point x="218" y="531" type="line" smooth="yes"/>
      <point x="231" y="613"/>
      <point x="285" y="659"/>
      <point x="364" y="659" type="curve" smooth="yes"/>
      <point x="442" y="659"/>
      <point x="481" y="613"/>
      <point x="468" y="530" type="curve"/>
      <point x="558" y="530" type="line"/>
      <point x="578" y="659"/>
      <point x="508" y="740"/>
      <point x="377" y="740" type="curve" smooth="yes"/>
      <point x="244" y="740"/>
      <point x="149" y="661"/>
      <point x="128" y="530" type="curve" smooth="yes"/>
      <point x="76" y="200" type="line" smooth="yes"/>
      <point x="55" y="69"/>
      <point x="125" y="-10"/>
    </contour>
  </outline>
</glyph>
<glyph name="I" format="2">
  <advance width="600"/>
  <unicode hex="0049"/>
  <anchor x="256" y="0" name="bottom"/>
  <anchor x="280" y="0" name="ogonek"/>
  <anchor x="372" y="730" name="top"/>
  <anchor x="92" y="730" name="topleft"/>
  <outline>
    <contour>
      <point x="61" y="0" type="line"/>
      <point x="451" y="0" type="line"/>
      <point x="464" y="82" type="line"/>
      <point x="315" y="82" type="line"/>
      <point x="405" y="648" type="line"/>
      <point x="554" y="648" type="line"/>
      <point x="567" y="730" type="line"/>
      <point x="177" y="730" type="line"/>
      <point x="164" y="648" type="line"/>
      <point x="313" y="648" type="line"/>
      <point x="223" y="82" type="line"/>
      <point x="74" y="82" type="line"/>
    </contour>
  </outline>
</glyph>
<glyph name="J" format="2">
  <advance width="600"/>
  <unicode hex="004A"/>
  <anchor x="256" y="0" name="bottom"/>
  <anchor x="432" y="730" name="top"/>
  <outline>
    <contour>
      <point x="224" y="-10" type="curve" smooth="yes"/>
      <point x="368" y="-10"/>
      <point x="462" y="70"/>
      <point x="484" y="210" type="curve" smooth="yes"/>
      <point x="567" y="730" type="line"/>
      <point x="272" y="730" type="line"/>
      <point x="259" y="648" type="line"/>
      <point x="464" y="648" type="line"/>
      <point x="394" y="210" type="line" smooth="yes"/>
      <point x="380" y="121"/>
      <point x="322" y="70"/>
      <point x="237" y="70" type="curve" smooth="yes"/>
      <point x="152" y="70"/>
      <point x="110" y="121"/>
      <point x="124" y="210" type="curve"/>
      <point x="34" y="210" type="line"/>
      <point x="13" y="74"/>
      <point x="84" y="-10"/>
    </contour>
  </outline>
</glyph>
<glyph name="L" format="2">
  <advance width="600"/>
  <unicode hex="004C"/>
  <anchor x="296" y="0" name="bottom"/>
  <anchor x="314" y="365" name="center"/>
  <anchor x="253" y="730" name="top"/>
  <anchor x="652" y="730" name="topright"/>
  <outline>
    <contour>
      <point x="91" y="0" type="line"/>
      <point x="511" y="0" type="line"/>
      <point x="524" y="82" type="line"/>
      <point x="194" y="82" type="line"/>
      <point x="297" y="730" type="line"/>
      <point x="207" y="730" type="line"/>
    </contour>
  </outline>
</glyph>
<glyph name="O" format="2">
  <advance width="600"/>
  <unicode hex="004F"/>
  <anchor x="256" y="0" name="bottom"/>
  <anchor x="314" y="365" name="center"/>
  <anchor x="387" y="700" name="horn"/>
  <anchor x="305" y="0" name="ogonek"/>
  <anchor x="372" y="730" name="top"/>
  <anchor x="92" y="730" name="topleft"/>
  <anchor x="652" y="730" name="topright"/>
  <outline>
    <contour>
      <point x="254" y="-10" type="curve" smooth="yes"/>
      <point x="385" y="-10"/>
      <point x="479" y="69"/>
      <point x="500" y="200" type="curve" smooth="yes"/>
      <point x="552" y="531" type="line" smooth="yes"/>
      <point x="572" y="661"/>
      <point x="504" y="740"/>
      <point x="373" y="740" type="curve" smooth="yes"/>
      <point x="242" y="740"/>
      <point x="149" y="661"/>
      <point x="128" y="530" type="curve" smooth="yes"/>
      <point x="76" y="200" type="line" smooth="yes"/>
      <point x="55" y="69"/>
      <point x="123" y="-10"/>
    </contour>
    <contour>
      <point x="267" y="71" type="curve" smooth="yes"/>
      <point x="189" y="71"/>
      <point x="153" y="117"/>
      <point x="166" y="200" type="curve" smooth="yes"/>
      <point x="218" y="530" type="line" smooth="yes"/>
      <point x="231" y="613"/>
      <point x="282" y="659"/>
      <point x="360" y="659" type="curve" smooth="yes"/>
      <point x="438" y="659"/>
      <point x="475" y="613"/>
      <point x="462" y="530" type="curve" smooth="yes"/>
      <point x="410" y="200" type="line" smooth="yes"/>
      <point x="397" y="117"/>
      <point x="345" y="71"/>
    </contour>
  </outline>
</glyph>
<glyph name="W" format="2">
  <advance width="600"/>
  <unicode hex="0057"/>
  <anchor x="256" y="0" name="bottom"/>
  <anchor x="372" y="730" name="top"/>
  <outline>
    <contour>
      <point x="65" y="0" type="line"/>
      <point x="178" y="0" type="line"/>
      <point x="332" y="550" type="line" smooth="yes"/>
      <point x="345" y="595"/>
      <point x="357" y="643"/>
      <point x="364" y="667" type="curve"/>
      <point x="362" y="643"/>
      <point x="359" y="595"/>
      <point x="357" y="550" type="curve" smooth="yes"/>
      <point x="332" y="0" type="line"/>
      <point x="445" y="0" type="line"/>
      <point x="647" y="730" type="line"/>
      <point x="565" y="730" type="line"/>
      <point x="422" y="190" type="line" smooth="yes"/>
      <point x="410" y="146"/>
      <point x="398" y="93"/>
      <point x="391" y="65" type="curve"/>
      <point x="393" y="93"/>
      <point x="395" y="146"/>
      <point x="397" y="190" type="curve" smooth="yes"/>
      <point x="421" y="730" type="line"/>
      <point x="326" y="730" type="line"/>
      <point x="172" y="190" type="line" smooth="yes"/>
      <point x="159" y="146"/>
      <point x="147" y="93"/>
      <point x="139" y="65" type="curve"/>
      <point x="143" y="93"/>
      <point x="147" y="146"/>
      <point x="150" y="190" type="curve" smooth="yes"/>
      <point x="181" y="730" type="line"/>
      <point x="97" y="730" type="line"/>
    </contour>
  </outline>
</glyph>
<glyph name="c" format="2">
  <advance width="600"/>
  <unicode hex="0063"/>
  <anchor x="260" y="0" name="bottom"/>
  <anchor x="347" y="550" name="top"/>
  <outline>
    <contour>
      <point x="258" y="-10" type="curve" smooth="yes"/>
      <point x="385" y="-10"/>
      <point x="480" y="63"/>
      <point x="503" y="180" type="curve"/>
      <point x="413" y="180" type="line"/>
      <point x="397" y="110"/>
      <point x="345" y="70"/>
      <point x="271" y="70" type="curve" smooth="yes"/>
      <point x="192" y="70"/>
      <point x="153" y="117"/>
      <point x="166" y="200" type="curve" smooth="yes"/>
      <point x="190" y="351" type="line" smooth="yes"/>
      <point x="203" y="433"/>
      <point x="257" y="480"/>
      <point x="336" y="480" type="curve" smooth="yes"/>
      <point x="410" y="480"/>
      <point x="450" y="440"/>
      <point x="443" y="370" type="curve"/>
      <point x="533" y="370" type="line"/>
      <point x="547" y="487"/>
      <point x="476" y="560"/>
      <point x="349" y="560" type="curve" smooth="yes"/>
      <point x="216" y="560"/>
      <point x="120" y="481"/>
      <point x="99" y="350" type="curve" smooth="yes"/>
      <point x="76" y="200" type="line" smooth="yes"/>
      <point x="55" y="69"/>
      <point x="125" y="-10"/>
    </contour>
  </outline>
</glyph>
<glyph name="e" format="2">
  <advance width="600"/>
  <unicode hex="0065"/>
  <anchor x="256" y="0" name="bottom"/>
  <anchor x="305" y="0" name="ogonek"/>
  <anchor x="343" y="550" name="top"/>
  <outline>
    <contour>
      <point x="254" y="-10" type="curve" smooth="yes"/>
      <point x="370" y="-10"/>
      <point x="462" y="48"/>
      <point x="488" y="140" type="curve"/>
      <point x="398" y="140" type="line"/>
      <point x="380" y="91"/>
      <point x="335" y="66"/>
      <point x="266" y="66" type="curve" smooth="yes"/>
      <point x="184" y="66"/>
      <point x="150" y="113"/>
      <point x="164" y="200" type="curve" smooth="yes"/>
      <point x="172" y="253" type="line"/>
      <point x="508" y="253" type="line"/>
      <point x="523" y="350" type="line" smooth="yes"/>
      <point x="544" y="477"/>
      <point x="475" y="560"/>
      <point x="345" y="560" type="curve" smooth="yes"/>
      <point x="215" y="560"/>
      <point x="120" y="477"/>
      <point x="99" y="350" type="curve" smooth="yes"/>
      <point x="76" y="200" type="line" smooth="yes"/>
      <point x="56" y="73"/>
      <point x="124" y="-10"/>
    </contour>
    <contour>
      <point x="430" y="313" type="line"/>
      <point x="438" y="321" type="line"/>
      <point x="183" y="321" type="line"/>
      <point x="187" y="350" type="line" smooth="yes"/>
      <point x="201" y="437"/>
      <point x="251" y="485"/>
      <point x="333" y="485" type="curve" smooth="yes"/>
      <point x="415" y="485"/>
      <point x="449" y="437"/>
      <point x="435" y="350" type="curve" smooth="yes"/>
    </contour>
  </outline>
</glyph>
<glyph name="o" format="2">
  <advance width="600"/>
  <unicode hex="006F"/>
  <anchor x="256" y="0" name="bottom"/>
  <anchor x="300" y="275" name="center"/>
  <anchor x="375" y="550" name="horn"/>
  <anchor x="305" y="0" name="ogonek"/>
  <anchor x="343" y="550" name="top"/>
  <anchor x="624" y="550" name="topright"/>
  <outline>
    <contour>
      <point x="254" y="-10" type="curve" smooth="yes"/>
      <point x="385" y="-10"/>
      <point x="479" y="69"/>
      <point x="500" y="200" type="curve" smooth="yes"/>
      <point x="524" y="351" type="line" smooth="yes"/>
      <point x="544" y="481"/>
      <point x="476" y="560"/>
      <point x="345" y="560" type="curve" smooth="yes"/>
      <point x="214" y="560"/>
      <point x="120" y="481"/>
      <point x="99" y="350" type="curve" smooth="yes"/>
      <point x="76" y="200" type="line" smooth="yes"/>
      <point x="55" y="69"/>
      <point x="123" y="-10"/>
    </contour>
    <contour>
      <point x="267" y="70" type="curve" smooth="yes"/>
      <point x="189" y="70"/>
      <point x="152" y="115"/>
      <point x="166" y="200" type="curve" smooth="yes"/>
      <point x="189" y="350" type="line" smooth="yes"/>
      <point x="203" y="435"/>
      <point x="254" y="480"/>
      <point x="332" y="480" type="curve" smooth="yes"/>
      <point x="410" y="480"/>
      <point x="447" y="435"/>
      <point x="433" y="350" type="curve" smooth="yes"/>
      <point x="410" y="200" type="line" smooth="yes"/>
      <point x="396" y="115"/>
      <point x="345" y="70"/>
    </contour>
  </outline>
</glyph>
<glyph name="q" format="2">
  <advance width="600"/>
  <unicode hex="0071"/>
  <anchor x="256" y="0" name="bottom"/>
  <anchor x="344" y="550" name="top"/>
  <outline>
    <contour>
      <point x="345" y="-180" type="line"/>
      <point x="435" y="-180" type="line"/>
      <point x="551" y="550" type="line"/>
      <point x="461" y="550" type="line"/>
      <point x="444" y="445" type="line"/>
      <point x="426" y="445" type="line"/>
      <point x="441" y="424" type="line"/>
      <point x="454" y="508"/>
      <point x="404" y="560"/>
      <point x="313" y="560" type="curve" smooth="yes"/>
      <point x="203" y="560"/>
      <point x="120" y="482"/>
      <point x="100" y="356" type="curve" smooth="yes"/>
      <point x="75" y="195" type="line" smooth="yes"/>
      <point x="55" y="68"/>
      <point x="111" y="-10"/>
      <point x="222" y="-10" type="curve" smooth="yes"/>
      <point x="312" y="-10"/>
      <point x="381" y="43"/>
      <point x="394" y="126" type="curve"/>
      <point x="373" y="105" type="line"/>
      <point x="393" y="105" type="line"/>
      <point x="371" y="-20" type="line"/>
    </contour>
    <contour>
      <point x="265" y="68" type="curve" smooth="yes"/>
      <point x="189" y="68"/>
      <point x="152" y="115"/>
      <point x="166" y="200" type="curve" smooth="yes"/>
      <point x="189" y="350" type="line" smooth="yes"/>
      <point x="203" y="435"/>
      <point x="254" y="482"/>
      <point x="330" y="482" type="curve" smooth="yes"/>
      <point x="404" y="482"/>
      <point x="443" y="433"/>
      <point x="429" y="350" type="curve" smooth="yes"/>
      <point x="406" y="200" type="line" smooth="yes"/>
      <point x="393" y="117"/>
      <point x="339" y="68"/>
    </contour>
  </outline>
</glyph>
<glyph name="twosuperior" format="2">
  <advance width="600"/>
  <unicode hex="00B2"/>
  <outline>
    <contour>
      <point x="186" y="405" type="line"/>
      <point x="475" y="405" type="line"/>
      <point x="485" y="469" type="line"/>
      <point x="268" y="469" type="line"/>
      <point x="411" y="561" type="line" smooth="yes"/>
      <point x="466" y="597"/>
      <point x="503" y="651"/>
      <point x="511" y="698" type="curve" smooth="yes"/>
      <point x="524" y="785"/>
      <point x="477" y="840"/>
      <point x="387" y="840" type="curve" smooth="yes"/>
      <point x="301" y="840"/>
      <point x="235" y="784"/>
      <point x="217" y="696" type="curve"/>
      <point x="287" y="696" type="line"/>
      <point x="295" y="746"/>
      <point x="330" y="777"/>
      <point x="377" y="777" type="curve" smooth="yes"/>
      <point x="424" y="777"/>
      <point x="449" y="746"/>
      <point x="441" y="696" type="curve" smooth="yes"/>
      <point x="436" y="666"/>
      <point x="413" y="634"/>
      <point x="381" y="613" type="curve" smooth="yes"/>
      <point x="200" y="492" type="line"/>
    </contour>
  </outline>
</glyph>
<glyph name="divide" format="2">
  <advance width="600"/>
  <unicode hex="00F7"/>
  <outline>
    <contour>
      <point x="103" y="295" type="line"/>
      <point x="503" y="295" type="line"/>
      <point x="515" y="370" type="line"/>
      <point x="115" y="370" type="line"/>
    </contour>
    <contour>
      <point x="329" y="460" type="curve" smooth="yes"/>
      <point x="379" y="460"/>
      <point x="417" y="490"/>
      <point x="424" y="535" type="curve" smooth="yes"/>
      <point x="431" y="580"/>
      <point x="403" y="610"/>
      <point x="353" y="610" type="curve" smooth="yes"/>
      <point x="303" y="610"/>
      <point x="265" y="580"/>
      <point x="258" y="535" type="curve" smooth="yes"/>
      <point x="251" y="490"/>
      <point x="279" y="460"/>
    </contour>
    <contour>
      <point x="265" y="55" type="curve" smooth="yes"/>
      <point x="315" y="55"/>
      <point x="353" y="85"/>
      <point x="360" y="130" type="curve" smooth="yes"/>
      <point x="367" y="175"/>
      <point x="339" y="205"/>
      <point x="289" y="205" type="curve" smooth="yes"/>
      <point x="239" y="205"/>
      <point x="201" y="175"/>
      <point x="194" y="130" type="curve" smooth="yes"/>
      <point x="187" y="85"/>
      <point x="215" y="55"/>
    </contour>
  </outline>
</glyph>
<glyph name="Aogonek" format="2">
  <advance width="600"/>
  <unicode hex="0104"/>
  <anchor x="256" y="0" name="bottom"/>
  <anchor x="455" y="0" name="ogonek"/>
  <anchor x="372" y="730" name="top"/>
  <outline>
    <contour>
      <point x="431" y="-203" type="curve" smooth="yes"/>
      <point x="509" y="-203" type="line"/>
      <point x="518" y="-143" type="line"/>
      <point x="458" y="-143" type="line" smooth="yes"/>
      <point x="424" y="-143"/>
      <point x="407" y="-122"/>
      <point x="411" y="-93" type="curve" smooth="yes"/>
      <point x="416" y="-65"/>
      <point x="439" y="-36"/>
      <point x="490" y="1" type="curve"/>
      <point x="503" y="10" type="line"/>
      <point x="428" y="10" type="line"/>
      <point x="358" y="-34"/>
      <point x="330" y="-72"/>
      <point x="324" y="-110" type="curve" smooth="yes"/>
      <point x="315" y="-164"/>
      <point x="357" y="-203"/>
    </contour>
    <component base="A"/>
  </outline>
</glyph>
<glyph name="idotless" format="2">
  <advance width="600"/>
  <unicode hex="0131"/>
  <anchor x="271" y="0" name="bottom"/>
  <anchor x="290" y="0" name="ogonek"/>
  <anchor x="358" y="550" name="top"/>
  <outline>
    <contour>
      <point x="36" y="0" type="line"/>
      <point x="506" y="0" type="line"/>
      <point x="519" y="82" type="line"/>
      <point x="334" y="82" type="line"/>
      <point x="408" y="550" type="line"/>
      <point x="148" y="550" type="line"/>
      <point x="135" y="468" type="line"/>
      <point x="305" y="468" type="line"/>
      <point x="244" y="82" type="line"/>
      <point x="49" y="82" type="line"/>
    </contour>
  </outline>
</glyph>
<glyph name="Eng" format="2">
  <advance width="600"/>
  <unicode hex="014A"/>
  <outline>
    <contour>
      <point x="167" y="-180" type="line"/>
      <point x="232" y="-180" type="line" smooth="yes"/>
      <point x="356" y="-180"/>
      <point x="449" y="-103"/>
      <point x="468" y="15" type="curve" smooth="yes"/>
      <point x="582" y="730" type="line"/>
      <point x="495" y="730" type="line"/>
      <point x="442" y="397" type="line" smooth="yes"/>
      <point x="430" y="324"/>
      <point x="422" y="229"/>
      <point x="418" y="179" type="curve"/>
      <point x="280" y="730" type="line"/>
      <point x="162" y="730" type="line"/>
      <point x="46" y="0" type="line"/>
      <point x="133" y="0" type="line"/>
      <point x="198" y="410" type="line" smooth="yes"/>
      <point x="210" y="483"/>
      <point x="219" y="576"/>
      <point x="223" y="625" type="curve"/>
      <point x="378" y="15" type="line"/>
      <point x="367" y="-55"/>
      <point x="316" y="-98"/>
      <point x="245" y="-98" type="curve" smooth="yes"/>
      <point x="180" y="-98" type="line"/>
    </contour>
  </outline>
</glyph>
<glyph name="Scedilla" format="2">
  <advance width="600"/>
  <unicode hex="015E"/>
  <anchor x="256" y="0" name="_bottom"/>
  <anchor x="256" y="0" name="bottom"/>
  <anchor x="372" y="730" name="top"/>
  <outline>
    <contour>
      <point x="129" y="-203" type="line"/>
      <point x="214" y="-203" type="line" smooth="yes"/>
      <point x="286" y="-203"/>
      <point x="340" y="-166"/>
      <point x="347" y="-120" type="curve" smooth="yes"/>
      <point x="355" y="-68"/>
      <point x="292" y="-41"/>
      <point x="240" y="-35" type="curve"/>
      <point x="271" y="26" type="line"/>
      <point x="214" y="26" type="line"/>
      <point x="164" y="-69" type="line"/>
      <point x="231" y="-69"/>
      <point x="266" y="-89"/>
      <point x="262" y="-112" type="curve" smooth="yes"/>
      <point x="259" y="-130"/>
      <point x="237" y="-148"/>
      <point x="208" y="-148" type="curve" smooth="yes"/>
      <point x="138" y="-148" type="line"/>
    </contour>
    <component base="S"/>
  </outline>
</glyph>
<glyph name="Uogonek" format="2">
  <advance width="600"/>
  <unicode hex="0172"/>
  <anchor x="457" y="730" name="horn"/>
  <anchor x="372" y="730" name="top"/>
  <outline>
    <contour>
      <point x="303" y="-203" type="curve" smooth="yes"/>
      <point x="381" y="-203" type="line"/>
      <point x="390" y="-143" type="line"/>
      <point x="330" y="-143" type="line" smooth="yes"/>
      <point x="296" y="-143"/>
      <point x="279" y="-122"/>
      <point x="283" y="-93" type="curve" smooth="yes"/>
      <point x="288" y="-65"/>
      <point x="307" y="-36"/>
      <point x="357" y="1" type="curve" smooth="yes"/>
      <point x="390" y="25" type="line"/>
      <point x="448" y="60"/>
      <point x="485" y="121"/>
      <point x="498" y="200" type="curve" smooth="yes"/>
      <point x="582" y="730" type="line"/>
      <point x="492" y="730" type="line"/>
      <point x="408" y="200" type="line" smooth="yes"/>
      <point x="395" y="117"/>
      <point x="345" y="71"/>
      <point x="267" y="71" type="curve" smooth="yes"/>
      <point x="189" y="71"/>
      <point x="155" y="117"/>
      <point x="168" y="200" type="curve" smooth="yes"/>
      <point x="252" y="730" type="line"/>
      <point x="162" y="730" type="line"/>
      <point x="78" y="200" type="line" smooth="yes"/>
      <point x="57" y="69"/>
      <point x="123" y="-10"/>
      <point x="254" y="-10" type="curve" smooth="yes"/>
      <point x="258" y="-10"/>
      <point x="263" y="-10"/>
      <point x="267" y="-10" type="curve"/>
      <point x="226" y="-45"/>
      <point x="200" y="-82"/>
      <point x="196" y="-110" type="curve" smooth="yes"/>
      <point x="187" y="-164"/>
      <point x="229" y="-203"/>
    </contour>
  </outline>
</glyph>
<glyph name="Uhorn" format="2">
  <advance width="600"/>
  <unicode hex="01AF"/>
  <anchor x="372" y="730" name="top"/>
  <anchor x="256" y="0" name="bottom"/>
  <anchor x="457" y="730" name="horn"/>
  <anchor x="305" y="0" name="ogonek"/>
  <anchor x="652" y="730" name="topright"/>
  <outline>
    <contour>
      <point x="496" y="665" type="line"/>
      <point x="551" y="665" type="line" smooth="yes"/>
      <point x="615" y="665"/>
      <point x="662" y="702"/>
      <point x="671" y="760" type="curve" smooth="yes"/>
      <point x="684" y="840" type="line"/>
      <point x="609" y="840" type="line"/>
      <point x="597" y="765" type="line" smooth="yes"/>
      <point x="594" y="744"/>
      <point x="578" y="730"/>
      <point x="557" y="730" type="curve" smooth="yes"/>
      <point x="507" y="730" type="line"/>
    </contour>
    <component base="U"/>
  </outline>
</glyph>
<glyph name="doubleprimemod" format="2">
  <advance width="600"/>
  <unicode hex="02BA"/>
  <outline>
    <contour>
      <point x="351" y="409" type="line"/>
      <point x="431" y="409" type="line"/>
      <point x="610" y="720" type="line"/>
      <point x="480" y="720" type="line"/>
    </contour>
    <contour>
      <point x="76" y="409" type="line"/>
      <point x="156" y="409" type="line"/>
      <point x="335" y="720" type="line"/>
      <point x="205" y="720" type="line"/>
    </contour>
  </outline>
</glyph>
<glyph name="slashshortcomb" format="2">
  <unicode hex="0337"/>
  <anchor x="-299" y="280" name="_center"/>
  <outline>
    <contour>
      <point x="-613" y="-30" type="line"/>
      <point x="-520" y="-30" type="line"/>
      <point x="15" y="590" type="line"/>
      <point x="-79" y="590" type="line"/>
    </contour>
  </outline>
</glyph>
<glyph name="slashlongcomb" format="2">
  <unicode hex="0338"/>
  <anchor x="-300" y="275" name="_center"/>
  <outline>
    <contour>
      <point x="-551" y="-110" type="line"/>
      <point x="-485" y="-110" type="line"/>
      <point x="-49" y="660" type="line"/>
      <point x="-115" y="660" type="line"/>
    </contour>
  </outline>
</glyph>
<glyph name="epsilon" format="2">
  <advance width="600"/>
  <unicode hex="03B5"/>
  <outline>
    <contour>
      <point x="282" y="-7" type="line" smooth="yes"/>
      <point x="398" y="-7"/>
      <point x="485" y="46"/>
      <point x="513" y="130" type="curve"/>
      <point x="418" y="130" type="line"/>
      <point x="403" y="96"/>
      <point x="357" y="73"/>
      <point x="295" y="73" type="curve" smooth="yes"/>
      <point x="248" y="73" type="line" smooth="yes"/>
      <point x="184" y="73"/>
      <point x="149" y="105"/>
      <point x="157" y="159" type="curve" smooth="yes"/>
      <point x="166" y="212"/>
      <point x="211" y="246"/>
      <point x="275" y="246" type="curve" smooth="yes"/>
      <point x="386" y="246" type="line"/>
      <point x="398" y="324" type="line"/>
      <point x="285" y="324" type="line" smooth="yes"/>
      <point x="227" y="324"/>
      <point x="196" y="354"/>
      <point x="204" y="401" type="curve" smooth="yes"/>
      <point x="211" y="448"/>
      <point x="253" y="477"/>
      <point x="312" y="477" type="curve" smooth="yes"/>
      <point x="362" y="477" type="line" smooth="yes"/>
      <point x="418" y="477"/>
      <point x="450" y="453"/>
      <point x="451" y="415" type="curve"/>
      <point x="546" y="415" type="line"/>
      <point x="547" y="503"/>
      <point x="483" y="557"/>
      <point x="374" y="557" type="curve" smooth="yes"/>
      <point x="324" y="557" type="line" smooth="yes"/>
      <point x="206" y="557"/>
      <point x="124" y="500"/>
      <point x="110" y="413" type="curve" smooth="yes"/>
      <point x="99" y="342"/>
      <point x="140" y="298"/>
      <point x="218" y="293" type="curve"/>
      <point x="218" y="289" type="line"/>
      <point x="133" y="283"/>
      <point x="74" y="231"/>
      <point x="61" y="152" type="curve" smooth="yes"/>
      <point x="46" y="54"/>
      <point x="112" y="-7"/>
      <point x="235" y="-7" type="curve" smooth="yes"/>
    </contour>
  </outline>
</glyph>
<glyph name="zeta" format="2">
  <advance width="600"/>
  <unicode hex="03B6"/>
  <outline>
    <contour>
      <point x="373" y="-180" type="line"/>
      <point x="463" y="-180" type="line"/>
      <point x="484" y="-48" type="line" smooth="yes"/>
      <point x="499" y="45"/>
      <point x="465" y="80"/>
      <point x="367" y="80" type="curve" smooth="yes"/>
      <point x="240" y="80" type="line" smooth="yes"/>
      <point x="169" y="80"/>
      <point x="133" y="116"/>
      <point x="143" y="174" type="curve" smooth="yes"/>
      <point x="154" y="248"/>
      <point x="232" y="350"/>
      <point x="349" y="452" type="curve" smooth="yes"/>
      <point x="563" y="640" type="line"/>
      <point x="578" y="730" type="line"/>
      <point x="163" y="730" type="line"/>
      <point x="150" y="648" type="line"/>
      <point x="462" y="648" type="line"/>
      <point x="290" y="503" type="line" smooth="yes"/>
      <point x="149" y="385"/>
      <point x="67" y="267"/>
      <point x="52" y="168" type="curve" smooth="yes"/>
      <point x="36" y="68"/>
      <point x="98" y="0"/>
      <point x="226" y="0" type="curve" smooth="yes"/>
      <point x="354" y="0" type="line" smooth="yes"/>
      <point x="388" y="0"/>
      <point x="399" y="-17"/>
      <point x="394" y="-48" type="curve" smooth="yes"/>
    </contour>
  </outline>
</glyph>
<glyph name="iota" format="2">
  <advance width="600"/>
  <unicode hex="03B9"/>
  <anchor x="344" y="550" name="top"/>
  <outline>
    <contour>
      <point x="371" y="0" type="curve" smooth="yes"/>
      <point x="506" y="0" type="line"/>
      <point x="519" y="82" type="line"/>
      <point x="384" y="82" type="line" smooth="yes"/>
      <point x="341" y="82"/>
      <point x="318" y="110"/>
      <point x="326" y="155" type="curve" smooth="yes"/>
      <point x="388" y="550" type="line"/>
      <point x="98" y="550" type="line"/>
      <point x="85" y="468" type="line"/>
      <point x="285" y="468" type="line"/>
      <point x="236" y="155" type="line" smooth="yes"/>
      <point x="221" y="61"/>
      <point x="274" y="0"/>
    </contour>
  </outline>
</glyph>
<glyph name="sigma" format="2">
  <advance width="600"/>
  <unicode hex="03C3"/>
  <outline>
    <contour>
      <point x="251" y="-10" type="curve" smooth="yes"/>
      <point x="379" y="-10"/>
      <point x="477" y="74"/>
      <point x="497" y="200" type="curve" smooth="yes"/>
      <point x="519" y="340" type="line" smooth="yes"/>
      <point x="531" y="417"/>
      <point x="492" y="466"/>
      <point x="416" y="466" type="curve"/>
      <point x="429" y="452" type="line"/>
      <point x="431" y="468" type="line"/>
      <point x="600" y="468" type="line"/>
      <point x="613" y="550" type="line"/>
      <point x="340" y="550" type="line" smooth="yes"/>
      <point x="212" y="550"/>
      <point x="115" y="466"/>
      <point x="95" y="340" type="curve" smooth="yes"/>
      <point x="73" y="200" type="line" smooth="yes"/>
      <point x="53" y="74"/>
      <point x="123" y="-10"/>
    </contour>
    <contour>
      <point x="264" y="70" type="curve" smooth="yes"/>
      <point x="188" y="70"/>
      <point x="150" y="120"/>
      <point x="163" y="200" type="curve" smooth="yes"/>
      <point x="185" y="340" type="line" smooth="yes"/>
      <point x="198" y="420"/>
      <point x="251" y="470"/>
      <point x="327" y="470" type="curve" smooth="yes"/>
      <point x="403" y="470"/>
      <point x="442" y="420"/>
      <point x="429" y="340" type="curve" smooth="yes"/>
      <point x="407" y="200" type="line" smooth="yes"/>
      <point x="394" y="120"/>
      <point x="340" y="70"/>
    </contour>
  </outline>
</glyph>
<glyph name="omega" format="2">
  <advance width="600"/>
  <unicode hex="03C9"/>
  <outline>
    <contour>
      <point x="136" y="-10" type="curve" smooth="yes"/>
      <point x="211" y="-10"/>
      <point x="266" y="42"/>
      <point x="279" y="126" type="curve"/>
      <point x="275" y="126" type="line"/>
      <point x="262" y="42"/>
      <point x="299" y="-10"/>
      <point x="374" y="-10" type="curve" smooth="yes"/>
      <point x="452" y="-10"/>
      <point x="510" y="51"/>
      <point x="526" y="151" type="curve" smooth="yes"/>
      <point x="559" y="358" type="line" smooth="yes"/>
      <point x="576" y="466"/>
      <point x="533" y="541"/>
      <point x="445" y="555" type="curve"/>
      <point x="430" y="460" type="line"/>
      <point x="467" y="452"/>
      <point x="482" y="413"/>
      <point x="474" y="358" type="curve" smooth="yes"/>
      <point x="441" y="150" type="line" smooth="yes"/>
      <point x="432" y="96"/>
      <point x="405" y="66"/>
      <point x="366" y="66" type="curve" smooth="yes"/>
      <point x="327" y="66"/>
      <point x="309" y="96"/>
      <point x="318" y="150" type="curve" smooth="yes"/>
      <point x="349" y="345" type="line"/>
      <point x="275" y="345" type="line"/>
      <point x="244" y="150" type="line" smooth="yes"/>
      <point x="235" y="96"/>
      <point x="207" y="66"/>
      <point x="168" y="66" type="curve" smooth="yes"/>
      <point x="129" y="66"/>
      <point x="112" y="96"/>
      <point x="121" y="150" type="curve" smooth="yes"/>
      <point x="154" y="358" type="line" smooth="yes"/>
      <point x="163" y="417"/>
      <point x="190" y="458"/>
      <point x="226" y="465" type="curve"/>
      <point x="241" y="560" type="line"/>
      <point x="151" y="546"/>
      <point x="86" y="469"/>
      <point x="69" y="358" type="curve" smooth="yes"/>
      <point x="36" y="151" type="line" smooth="yes"/>
      <point x="20" y="51"/>
      <point x="58" y="-10"/>
    </contour>
  </outline>
</glyph>
<glyph name="ustraightstroke-cy" format="2">
  <advance width="600"/>
  <unicode hex="04B1"/>
  <outline>
    <contour>
      <point x="69" y="-75" type="line"/>
      <point x="419" y="-75" type="line"/>
      <point x="431" y="0" type="line"/>
      <point x="81" y="0" type="line"/>
    </contour>
    <component base="gamma"/>
  </outline>
</glyph>
<glyph name="chedescender-cy" format="2">
  <advance width="600"/>
  <unicode hex="04B7"/>
  <outline>
    <contour>
      <point x="394" y="-140" type="line"/>
      <point x="474" y="-140" type="line"/>
      <point x="509" y="80" type="line"/>
      <point x="429" y="80" type="line"/>
    </contour>
    <component base="che-cy" xOffset="-5"/>
  </outline>
</glyph>
<glyph name="bracketleftwithquill" format="2">
  <advance width="600"/>
  <unicode hex="2045"/>
  <outline>
    <contour>
      <point x="138" y="-110" type="line"/>
      <point x="378" y="-110" type="line"/>
      <point x="390" y="-30" type="line"/>
      <point x="240" y="-30" type="line"/>
      <point x="298" y="335" type="line"/>
      <point x="453" y="335" type="line"/>
      <point x="466" y="415" type="line"/>
      <point x="311" y="415" type="line"/>
      <point x="364" y="750" type="line"/>
      <point x="519" y="750" type="line"/>
      <point x="531" y="830" type="line"/>
      <point x="286" y="830" type="line"/>
    </contour>
  </outline>
</glyph>
<glyph name="bracketrightwithquill" format="2">
  <advance width="600"/>
  <unicode hex="2046"/>
  <outline>
    <contour>
      <point x="101" y="-110" type="line"/>
      <point x="341" y="-110" type="line"/>
      <point x="489" y="830" type="line"/>
      <point x="244" y="830" type="line"/>
      <point x="232" y="750" type="line"/>
      <point x="387" y="750" type="line"/>
      <point x="334" y="415" type="line"/>
      <point x="179" y="415" type="line"/>
      <point x="166" y="335" type="line"/>
      <point x="321" y="335" type="line"/>
      <point x="263" y="-30" type="line"/>
      <point x="113" y="-30" type="line"/>
    </contour>
  </outline>
</glyph>
<glyph name="trademark" format="2">
  <advance width="600"/>
  <unicode hex="2122"/>
  <outline>
    <contour>
      <point x="130" y="370" type="line"/>
      <point x="190" y="370" type="line"/>
      <point x="239" y="680" type="line"/>
      <point x="339" y="680" type="line"/>
      <point x="347" y="730" type="line"/>
      <point x="87" y="730" type="line"/>
      <point x="79" y="680" type="line"/>
      <point x="179" y="680" type="line"/>
    </contour>
    <contour>
      <point x="325" y="370" type="line"/>
      <point x="380" y="370" type="line"/>
      <point x="415" y="591" type="line" smooth="yes"/>
      <point x="420" y="628"/>
      <point x="423" y="675"/>
      <point x="424" y="700" type="curve"/>
      <point x="428" y="673"/>
      <point x="432" y="633"/>
      <point x="434" y="621" type="curve" smooth="yes"/>
      <point x="451" y="517" type="line"/>
      <point x="502" y="517" type="line"/>
      <point x="548" y="620" type="line" smooth="yes"/>
      <point x="554" y="632"/>
      <point x="572" y="673"/>
      <point x="584" y="700" type="curve"/>
      <point x="577" y="675"/>
      <point x="565" y="628"/>
      <point x="560" y="591" type="curve" smooth="yes"/>
      <point x="525" y="370" type="line"/>
      <point x="580" y="370" type="line"/>
      <point x="637" y="730" type="line"/>
      <point x="559" y="730" type="line"/>
      <point x="509" y="628" type="line" smooth="yes"/>
      <point x="499" y="609"/>
      <point x="489" y="576"/>
      <point x="484" y="557" type="curve"/>
      <point x="484" y="576"/>
      <point x="483" y="609"/>
      <point x="479" y="628" type="curve" smooth="yes"/>
      <point x="462" y="730" type="line"/>
      <point x="382" y="730" type="line"/>
    </contour>
  </outline>
</glyph>
<glyph name="southWestArrow" format="2">
  <advance width="600"/>
  <unicode hex="2199"/>
  <outline>
    <contour>
      <point x="45" y="75" type="line"/>
      <point x="460" y="75" type="line"/>
      <point x="460" y="153" type="line"/>
      <point x="265" y="153" type="line" smooth="yes"/>
      <point x="232" y="153"/>
      <point x="200" y="150"/>
      <point x="185" y="148" type="curve"/>
      <point x="184" y="155" type="line"/>
      <point x="196" y="164"/>
      <point x="219" y="183"/>
      <point x="237" y="201" type="curve" smooth="yes"/>
      <point x="590" y="557" type="line"/>
      <point x="530" y="618" type="line"/>
      <point x="175" y="260" type="line" smooth="yes"/>
      <point x="156" y="241"/>
      <point x="135" y="216"/>
      <point x="125" y="202" type="curve"/>
      <point x="118" y="204" type="line"/>
      <point x="121" y="222"/>
      <point x="125" y="258"/>
      <point x="125" y="291" type="curve" smooth="yes"/>
      <point x="125" y="490" type="line"/>
      <point x="45" y="490" type="line"/>
    </contour>
  </outline>
</glyph>
<glyph name="leftHookArrow" format="2">
  <advance width="600"/>
  <unicode hex="21A9"/>
  <outline>
    <contour>
      <point x="76" y="73" type="line"/>
      <point x="182" y="73" type="line"/>
      <point x="95" y="183" type="line" smooth="yes"/>
      <point x="82" y="200"/>
      <point x="62" y="219"/>
      <point x="50" y="228" type="curve"/>
      <point x="50" y="237" type="line"/>
      <point x="67" y="235"/>
      <point x="98" y="233"/>
      <point x="120" y="233" type="curve" smooth="yes"/>
      <point x="422" y="233" type="line" smooth="yes"/>
      <point x="578" y="233"/>
      <point x="680" y="331"/>
      <point x="680" y="481" type="curve" smooth="yes"/>
      <point x="680" y="631"/>
      <point x="578" y="729"/>
      <point x="422" y="729" type="curve" smooth="yes"/>
      <point x="382" y="729" type="line"/>
      <point x="382" y="649" type="line"/>
      <point x="422" y="649" type="line" smooth="yes"/>
      <point x="524" y="649"/>
      <point x="590" y="583"/>
      <point x="590" y="481" type="curve" smooth="yes"/>
      <point x="590" y="379"/>
      <point x="524" y="313"/>
      <point x="422" y="313" type="curve" smooth="yes"/>
      <point x="120" y="313" type="line" smooth="yes"/>
      <point x="98" y="313"/>
      <point x="67" y="310"/>
      <point x="50" y="308" type="curve"/>
      <point x="50" y="317" type="line"/>
      <point x="59" y="325"/>
      <point x="78" y="342"/>
      <point x="95" y="364" type="curve" smooth="yes"/>
      <point x="182" y="473" type="line"/>
      <point x="76" y="473" type="line"/>
      <point x="-80" y="273" type="line"/>
    </contour>
  </outline>
</glyph>
<glyph name="asymptoticallyequal" format="2">
  <advance width="600"/>
  <unicode hex="2243"/>
  <outline>
    <contour>
      <point x="53" y="170" type="line"/>
      <point x="513" y="170" type="line"/>
      <point x="526" y="250" type="line"/>
      <point x="66" y="250" type="line"/>
    </contour>
    <component base="asciitilde" xOffset="19" yOffset="114"/>
  </outline>
</glyph>
<glyph name="questionedequalto" format="2">
  <advance width="600"/>
  <unicode hex="225F"/>
  <outline>
    <contour>
      <point x="297" y="545" type="line"/>
      <point x="352" y="545" type="line"/>
      <point x="358" y="580" type="line"/>
      <point x="377" y="580" type="line" smooth="yes"/>
      <point x="445" y="580"/>
      <point x="495" y="620"/>
      <point x="505" y="683" type="curve" smooth="yes"/>
      <point x="516" y="749"/>
      <point x="478" y="791"/>
      <point x="410" y="791" type="curve" smooth="yes"/>
      <point x="275" y="791" type="line"/>
      <point x="267" y="736" type="line"/>
      <point x="401" y="736" type="line" smooth="yes"/>
      <point x="433" y="736"/>
      <point x="450" y="715"/>
      <point x="445" y="683" type="curve" smooth="yes"/>
      <point x="440" y="651"/>
      <point x="416" y="630"/>
      <point x="384" y="630" type="curve" smooth="yes"/>
      <point x="311" y="630" type="line"/>
    </contour>
    <contour>
      <point x="53" y="76" type="line"/>
      <point x="483" y="76" type="line"/>
      <point x="495" y="152" type="line"/>
      <point x="65" y="152" type="line"/>
    </contour>
    <contour>
      <point x="87" y="292" type="line"/>
      <point x="517" y="292" type="line"/>
      <point x="529" y="368" type="line"/>
      <point x="99" y="368" type="line"/>
    </contour>
    <contour>
      <point x="306" y="430" type="curve" smooth="yes"/>
      <point x="330" y="430"/>
      <point x="347" y="444"/>
      <point x="351" y="466" type="curve" smooth="yes"/>
      <point x="354" y="488"/>
      <point x="342" y="502"/>
      <point x="318" y="502" type="curve" smooth="yes"/>
      <point x="294" y="502"/>
      <point x="276" y="488"/>
      <point x="273" y="466" type="curve" smooth="yes"/>
      <point x="269" y="444"/>
      <point x="282" y="430"/>
    </contour>
  </outline>
</glyph>
<glyph name="neitherasupersetofnorequalto" format="2">
  <advance width="600"/>
  <unicode hex="2289"/>
  <outline>
    <contour>
      <point x="36" y="-110" type="line"/>
      <point x="111" y="-110" type="line"/>
      <point x="604" y="830" type="line"/>
      <point x="529" y="830" type="line"/>
    </contour>
    <component base="reflexsuperset"/>
  </outline>
</glyph>
<glyph name="multiply.circled" format="2">
  <advance width="600"/>
  <unicode hex="2297"/>
  <outline>
    <contour>
      <point x="309" y="20" type="curve" smooth="yes"/>
      <point x="486" y="20"/>
      <point x="619" y="153"/>
      <point x="619" y="330" type="curve" smooth="yes"/>
      <point x="619" y="507"/>
      <point x="486" y="640"/>
      <point x="309" y="640" type="curve" smooth="yes"/>
      <point x="132" y="640"/>
      <point x="-1" y="507"/>
      <point x="-1" y="330" type="curve" smooth="yes"/>
      <point x="-1" y="153"/>
      <point x="132" y="20"/>
    </contour>
    <contour>
      <point x="309" y="70" type="curve" smooth="yes"/>
      <point x="161" y="70"/>
      <point x="49" y="182"/>
      <point x="49" y="330" type="curve" smooth="yes"/>
      <point x="49" y="478"/>
      <point x="161" y="590"/>
      <point x="309" y="590" type="curve" smooth="yes"/>
      <point x="457" y="590"/>
      <point x="569" y="478"/>
      <point x="569" y="330" type="curve" smooth="yes"/>
      <point x="569" y="182"/>
      <point x="457" y="70"/>
    </contour>
    <contour>
      <point x="129" y="100" type="line"/>
      <point x="307" y="278" type="line"/>
      <point x="480" y="104" type="line"/>
      <point x="533" y="155" type="line"/>
      <point x="358" y="329" type="line"/>
      <point x="536" y="507" type="line"/>
      <point x="480" y="554" type="line"/>
      <point x="307" y="381" type="line"/>
      <point x="129" y="558" type="line"/>
      <point x="81" y="504" type="line"/>
      <point x="255" y="329" type="line"/>
      <point x="78" y="152" type="line"/>
    </contour>
  </outline>
</glyph>
<glyph name="fraction.circled" format="2">
  <advance width="600"/>
  <unicode hex="2298"/>
  <outline>
    <contour>
      <point x="309" y="20" type="curve" smooth="yes"/>
      <point x="486" y="20"/>
      <point x="619" y="153"/>
      <point x="619" y="330" type="curve" smooth="yes"/>
      <point x="619" y="507"/>
      <point x="486" y="640"/>
      <point x="309" y="640" type="curve" smooth="yes"/>
      <point x="132" y="640"/>
      <point x="-1" y="507"/>
      <point x="-1" y="330" type="curve" smooth="yes"/>
      <point x="-1" y="153"/>
      <point x="132" y="20"/>
    </contour>
    <contour>
      <point x="309" y="70" type="curve" smooth="yes"/>
      <point x="161" y="70"/>
      <point x="49" y="182"/>
      <point x="49" y="330" type="curve" smooth="yes"/>
      <point x="49" y="478"/>
      <point x="161" y="590"/>
      <point x="309" y="590" type="curve" smooth="yes"/>
      <point x="457" y="590"/>
      <point x="569" y="478"/>
      <point x="569" y="330" type="curve" smooth="yes"/>
      <point x="569" y="182"/>
      <point x="457" y="70"/>
    </contour>
    <contour>
      <point x="125" y="116" type="line"/>
      <point x="172" y="81" type="line"/>
      <point x="490" y="556" type="line"/>
      <point x="438" y="584" type="line"/>
    </contour>
  </outline>
</glyph>
<glyph name="normalsubgroupoforequalto" format="2">
  <advance width="600"/>
  <unicode hex="22B4"/>
  <outline>
    <contour>
      <point x="501" y="190" type="line"/>
      <point x="585" y="720" type="line"/>
      <point x="121" y="505" type="line"/>
      <point x="105" y="405" type="line"/>
    </contour>
    <contour>
      <point x="41" y="0" type="line"/>
      <point x="471" y="0" type="line"/>
      <point x="484" y="80" type="line"/>
      <point x="54" y="80" type="line"/>
    </contour>
    <contour>
      <point x="445" y="314" type="line"/>
      <point x="230" y="428" type="line" smooth="yes"/>
      <point x="208" y="440"/>
      <point x="185" y="449"/>
      <point x="173" y="452" type="curve"/>
      <point x="185" y="455"/>
      <point x="210" y="463"/>
      <point x="237" y="475" type="curve" smooth="yes"/>
      <point x="488" y="589" type="line"/>
    </contour>
  </outline>
</glyph>
<glyph name="leftFloor" format="2">
  <advance width="600"/>
  <unicode hex="230A"/>
  <outline>
    <contour>
      <point x="144" y="-110" type="line"/>
      <point x="389" y="-110" type="line"/>
      <point x="401" y="-30" type="line"/>
      <point x="246" y="-30" type="line"/>
      <point x="382" y="830" type="line"/>
      <point x="292" y="830" type="line"/>
    </contour>
  </outline>
</glyph>
<glyph name="checkmark" format="2">
  <advance width="600"/>
  <unicode hex="2713"/>
  <outline>
    <contour>
      <point x="37" y="328" type="line"/>
      <point x="253" y="115" type="line"/>
      <point x="564" y="574" type="line"/>
      <point x="495" y="622" type="line"/>
      <point x="244" y="252" type="line"/>
      <point x="100" y="394" type="line"/>
    </contour>
  </outline>
</glyph>
<glyph name="rightsshapedbagdelimiter" format="2">
  <advance width="600"/>
  <unicode hex="27C6"/>
  <outline>
    <contour>
      <point x="68" y="-110" type="line"/>
      <point x="203" y="-110" type="line" smooth="yes"/>
      <point x="343" y="-110"/>
      <point x="424" y="-41"/>
      <point x="447" y="97" type="curve" smooth="yes"/>
      <point x="458" y="164"/>
      <point x="438" y="265"/>
      <point x="400" y="347" type="curve" smooth="yes"/>
      <point x="306" y="550" type="line" smooth="yes"/>
      <point x="273" y="621"/>
      <point x="272" y="670"/>
      <point x="276" y="695" type="curve" smooth="yes"/>
      <point x="281" y="730"/>
      <point x="307" y="760"/>
      <point x="348" y="760" type="curve" smooth="yes"/>
      <point x="386" y="760"/>
      <point x="407" y="734"/>
      <point x="401" y="695" type="curve" smooth="yes"/>
      <point x="397" y="668" type="line"/>
      <point x="487" y="668" type="line"/>
      <point x="491" y="695" type="line" smooth="yes"/>
      <point x="504" y="783"/>
      <point x="453" y="840"/>
      <point x="360" y="840" type="curve" smooth="yes"/>
      <point x="268" y="840"/>
      <point x="200" y="783"/>
      <point x="186" y="697" type="curve" smooth="yes"/>
      <point x="177" y="639"/>
      <point x="196" y="582"/>
      <point x="215" y="538" type="curve" smooth="yes"/>
      <point x="304" y="336" type="line" smooth="yes"/>
      <point x="357" y="216"/>
      <point x="365" y="148"/>
      <point x="357" y="100" type="curve" smooth="yes"/>
      <point x="344" y="19"/>
      <point x="289" y="-30"/>
      <point x="216" y="-30" type="curve" smooth="yes"/>
      <point x="81" y="-30" type="line"/>
    </contour>
  </outline>
</glyph>
<glyph name="G.half" format="2">
  <advance width="400"/>
  <outline>
    <contour>
      <point x="162" y="-5" type="curve" smooth="yes"/>
      <point x="257" y="-5"/>
      <point x="340" y="65"/>
      <point x="356" y="167" type="curve" smooth="yes"/>
      <point x="359" y="181" type="line"/>
      <point x="192" y="181" type="line"/>
      <point x="183" y="124" type="line"/>
      <point x="282" y="124" type="line"/>
      <point x="256" y="72"/>
      <point x="214" y="53"/>
      <point x="171" y="53" type="curve" smooth="yes"/>
      <point x="117" y="53"/>
      <point x="80" y="91"/>
      <point x="80" y="146" type="curve" smooth="yes"/>
      <point x="80" y="222"/>
      <point x="141" y="282"/>
      <point x="208" y="282" type="curve" smooth="yes"/>
      <point x="249" y="282"/>
      <point x="283" y="260"/>
      <point x="294" y="234" type="curve"/>
      <point x="362" y="234" type="line"/>
      <point x="351" y="294"/>
      <point x="293" y="340"/>
      <point x="217" y="340" type="curve" smooth="yes"/>
      <point x="106" y="340"/>
      <point x="12" y="248"/>
      <point x="12" y="139" type="curve" smooth="yes"/>
      <point x="12" y="55"/>
      <point x="72" y="-5"/>
    </contour>
  </outline>
</glyph>
<glyph name="L.half" format="2">
  <advance width="400"/>
  <anchor x="652" y="730" name="topright"/>
  <outline>
    <contour>
      <point x="38" y="0" type="line"/>
      <point x="326" y="0" type="line"/>
      <point x="336" y="60" type="line"/>
      <point x="114" y="60" type="line"/>
      <point x="157" y="335" type="line"/>
      <point x="91" y="335" type="line"/>
    </contour>
  </outline>
</glyph>
<glyph name="M.half" format="2">
  <advance width="400"/>
  <outline>
    <contour>
      <point x="-14" y="0" type="line"/>
      <point x="51" y="0" type="line"/>
      <point x="66" y="95" type="line" smooth="yes"/>
      <point x="82" y="198"/>
      <point x="84" y="244"/>
      <point x="82" y="295" type="curve"/>
      <point x="138" y="96" type="line"/>
      <point x="205" y="96" type="line"/>
      <point x="323" y="298" type="line"/>
      <point x="301" y="247"/>
      <point x="291" y="185"/>
      <point x="277" y="95" type="curve" smooth="yes"/>
      <point x="262" y="0" type="line"/>
      <point x="326" y="0" type="line"/>
      <point x="379" y="335" type="line"/>
      <point x="286" y="335" type="line"/>
      <point x="214" y="213" type="line" smooth="yes"/>
      <point x="195" y="180"/>
      <point x="185" y="168"/>
      <point x="178" y="145" type="curve"/>
      <point x="176" y="168"/>
      <point x="172" y="181"/>
      <point x="163" y="212" type="curve" smooth="yes"/>
      <point x="127" y="335" type="line"/>
      <point x="39" y="335" type="line"/>
    </contour>
  </outline>
</glyph>
<glyph name="P.half" format="2">
  <advance width="400"/>
  <outline>
    <contour>
      <point x="11" y="0" type="line"/>
      <point x="77" y="0" type="line"/>
      <point x="96" y="117" type="line"/>
      <point x="221" y="117" type="line" smooth="yes"/>
      <point x="295" y="117"/>
      <point x="352" y="163"/>
      <point x="362" y="225" type="curve" smooth="yes"/>
      <point x="372" y="288"/>
      <point x="329" y="335"/>
      <point x="255" y="335" type="curve" smooth="yes"/>
      <point x="64" y="335" type="line"/>
    </contour>
    <contour>
      <point x="105" y="175" type="line"/>
      <point x="121" y="277" type="line"/>
      <point x="248" y="277" type="line" smooth="yes"/>
      <point x="281" y="277"/>
      <point x="299" y="254"/>
      <point x="295" y="225" type="curve" smooth="yes"/>
      <point x="290" y="197"/>
      <point x="264" y="175"/>
      <point x="231" y="175" type="curve" smooth="yes"/>
    </contour>
  </outline>
</glyph>
<glyph name="brevecomb_gravecomb.case" format="2">
  <anchor x="-227" y="730" name="_top"/>
  <anchor x="-182" y="1020" name="top"/>
  <outline>
    <contour>
      <point x="-244" y="780" type="curve" smooth="yes"/>
      <point x="-195" y="780" type="line" smooth="yes"/>
      <point x="-109" y="780"/>
      <point x="-47" y="830"/>
      <point x="-34" y="910" type="curve"/>
      <point x="-104" y="910" type="line"/>
      <point x="-111" y="867"/>
      <point x="-142" y="840"/>
      <point x="-186" y="840" type="curve" smooth="yes"/>
      <point x="-235" y="840" type="line" smooth="yes"/>
      <point x="-278" y="840"/>
      <point x="-301" y="867"/>
      <point x="-294" y="910" type="curve"/>
      <point x="-364" y="910" type="line"/>
      <point x="-377" y="830"/>
      <point x="-330" y="780"/>
    </contour>
    <contour>
      <point x="-226" y="900" type="line"/>
      <point x="-139" y="900" type="line"/>
      <point x="-215" y="1020" type="line"/>
      <point x="-307" y="1020" type="line"/>
    </contour>
  </outline>
</glyph>
<glyph name="dieresiscomb.case" format="2">
  <anchor x="-227" y="730" name="_top"/>
  <anchor x="-194" y="945" name="top"/>
  <outline>
    <contour>
      <point x="-103" y="817" type="curve" smooth="yes"/>
      <point x="-64" y="817"/>
      <point x="-35" y="841"/>
      <point x="-29" y="880" type="curve" smooth="yes"/>
      <point x="-22" y="920"/>
      <point x="-43" y="945"/>
      <point x="-82" y="945" type="curve" smooth="yes"/>
      <point x="-121" y="945"/>
      <point x="-150" y="920"/>
      <point x="-157" y="880" type="curve" smooth="yes"/>
      <point x="-163" y="841"/>
      <point x="-142" y="817"/>
    </contour>
    <contour>
      <point x="-325" y="817" type="curve" smooth="yes"/>
      <point x="-286" y="817"/>
      <point x="-257" y="841"/>
      <point x="-251" y="880" type="curve" smooth="yes"/>
      <point x="-244" y="920"/>
      <point x="-265" y="945"/>
      <point x="-304" y="945" type="curve" smooth="yes"/>
      <point x="-343" y="945"/>
      <point x="-372" y="920"/>
      <point x="-379" y="880" type="curve" smooth="yes"/>
      <point x="-385" y="841"/>
      <point x="-364" y="817"/>
    </contour>
  </outline>
</glyph>
<glyph name="hyphen_greater_greater.liga" format="2">
  <advance width="600"/>
  <outline>
    <contour>
      <point x="-155" y="35" type="line"/>
      <point x="-45" y="35" type="line"/>
      <point x="233" y="330" type="line"/>
      <point x="49" y="625" type="line"/>
      <point x="-52" y="625" type="line"/>
      <point x="111" y="370" type="line"/>
      <point x="-1100" y="370" type="line"/>
      <point x="-1113" y="290" type="line"/>
      <point x="88" y="290" type="line"/>
    </contour>
    <contour>
      <point x="145" y="35" type="line"/>
      <point x="255" y="35" type="line"/>
      <point x="533" y="330" type="line"/>
      <point x="349" y="625" type="line"/>
      <point x="248" y="625" type="line"/>
      <point x="431" y="337" type="line"/>
    </contour>
  </outline>
</glyph>
<glyph name="less_bar.liga" format="2">
  <advance width="600"/>
  <outline>
    <contour>
      <point x="178" y="-85" type="line"/>
      <point x="268" y="-85" type="line"/>
      <point x="400" y="750" type="line"/>
      <point x="310" y="750" type="line"/>
      <point x="-344" y="380" type="line"/>
      <point x="-360" y="280" type="line"/>
    </contour>
    <contour>
      <point x="191" y="19" type="line"/>
      <point x="-276" y="328" type="line"/>
      <point x="290" y="643" type="line"/>
    </contour>
  </outline>
</glyph>
<glyph name="less_dollar.liga" format="2">
  <advance width="600"/>
  <outline>
    <contour>
      <point x="194" y="-140" type="line"/>
      <point x="254" y="-140" type="line"/>
      <point x="275" y="-9" type="line"/>
      <point x="393" y="3"/>
      <point x="482" y="80"/>
      <point x="499" y="190" type="curve" smooth="yes"/>
      <point x="515" y="287"/>
      <point x="468" y="365"/>
      <point x="379" y="395" type="curve" smooth="yes"/>
      <point x="341" y="408" type="line"/>
      <point x="380" y="658" type="line"/>
      <point x="439" y="648"/>
      <point x="466" y="607"/>
      <point x="456" y="545" type="curve"/>
      <point x="546" y="545" type="line"/>
      <point x="562" y="654"/>
      <point x="502" y="728"/>
      <point x="393" y="739" type="curve"/>
      <point x="414" y="870" type="line"/>
      <point x="354" y="870" type="line"/>
      <point x="333" y="738" type="line"/>
      <point x="219" y="727"/>
      <point x="136" y="653"/>
      <point x="119" y="546" type="curve" smooth="yes"/>
      <point x="104" y="449"/>
      <point x="151" y="372"/>
      <point x="243" y="344" type="curve" smooth="yes"/>
      <point x="269" y="336" type="line"/>
      <point x="227" y="71" type="line"/>
      <point x="155" y="73"/>
      <point x="97" y="82"/>
      <point x="42" y="108" type="curve"/>
      <point x="-436" y="327" type="line"/>
      <point x="-39" y="503" type="line"/>
      <point x="-25" y="595" type="line"/>
      <point x="-489" y="380" type="line"/>
      <point x="-505" y="280" type="line"/>
      <point x="-3" y="42" type="line" smooth="yes"/>
      <point x="62" y="11"/>
      <point x="134" y="-6"/>
      <point x="215" y="-9" type="curve"/>
    </contour>
    <contour>
      <point x="287" y="72" type="curve"/>
      <point x="326" y="317" type="line"/>
      <point x="337" y="313" type="line" smooth="yes"/>
      <point x="391" y="293"/>
      <point x="418" y="248"/>
      <point x="409" y="188" type="curve" smooth="yes"/>
      <point x="399" y="124"/>
      <point x="354" y="82"/>
    </contour>
    <contour>
      <point x="278" y="387" type="line"/>
      <point x="300" y="418" type="line"/>
      <point x="232" y="433"/>
      <point x="198" y="482"/>
      <point x="210" y="550" type="curve" smooth="yes"/>
      <point x="219" y="610"/>
      <point x="260" y="650"/>
      <point x="320" y="658" type="curve"/>
    </contour>
  </outline>
</glyph>
<glyph name="less_equal_equal.liga" format="2">
  <advance width="600"/>
  <outline>
    <contour>
      <point x="-932" y="35" type="line"/>
      <point x="-831" y="35" type="line"/>
      <point x="-916" y="170" type="line"/>
      <point x="498" y="170" type="line"/>
      <point x="511" y="250" type="line"/>
      <point x="-966" y="250" type="line"/>
      <point x="-1013" y="326" type="line"/>
      <point x="-934" y="410" type="line"/>
      <point x="536" y="410" type="line"/>
      <point x="549" y="490" type="line"/>
      <point x="-857" y="490" type="line"/>
      <point x="-728" y="625" type="line"/>
      <point x="-838" y="625" type="line"/>
      <point x="-1117" y="330" type="line"/>
    </contour>
  </outline>
</glyph>
<glyph name="less_equal_equal_greater.liga" format="2">
  <advance width="600"/>
  <outline>
    <contour>
      <point x="-1532" y="35" type="line"/>
      <point x="-1431" y="35" type="line"/>
      <point x="-1516" y="170" type="line"/>
      <point x="274" y="170" type="line"/>
      <point x="145" y="35" type="line"/>
      <point x="255" y="35" type="line"/>
      <point x="533" y="330" type="line"/>
      <point x="349" y="625" type="line"/>
      <point x="248" y="625" type="line"/>
      <point x="333" y="490" type="line"/>
      <point x="-1457" y="490" type="line"/>
      <point x="-1328" y="625" type="line"/>
      <point x="-1438" y="625" type="line"/>
      <point x="-1717" y="330" type="line"/>
    </contour>
    <contour>
      <point x="-1566" y="250" type="line"/>
      <point x="-1611" y="326" type="line"/>
      <point x="-1534" y="410" type="line"/>
      <point x="383" y="410" type="line"/>
      <point x="431" y="334" type="line"/>
      <point x="351" y="250" type="line"/>
    </contour>
  </outline>
</glyph>
<glyph name="numbersign_underscore.liga" format="2">
  <advance width="600"/>
  <outline>
    <contour>
      <point x="-366" y="-100" type="line"/>
      <point x="480" y="-100" type="line"/>
      <point x="492" y="-25" type="line"/>
      <point x="-270" y="-25" type="line"/>
      <point x="-189" y="210" type="line"/>
      <point x="-81" y="210" type="line"/>
      <point x="-70" y="275" type="line"/>
      <point x="-167" y="275" type="line"/>
      <point x="-105" y="455" type="line"/>
      <point x="-7" y="455" type="line"/>
      <point x="3" y="520" type="line"/>
      <point x="-84" y="520" type="line"/>
      <point x="-11" y="730" type="line"/>
      <point x="-81" y="730" type="line"/>
      <point x="-154" y="520" type="line"/>
      <point x="-314" y="520" type="line"/>
      <point x="-241" y="730" type="line"/>
      <point x="-311" y="730" type="line"/>
      <point x="-384" y="520" type="line"/>
      <point x="-492" y="520" type="line"/>
      <point x="-502" y="455" type="line"/>
      <point x="-405" y="455" type="line"/>
      <point x="-467" y="275" type="line"/>
      <point x="-565" y="275" type="line"/>
      <point x="-576" y="210" type="line"/>
      <point x="-489" y="210" type="line"/>
      <point x="-561" y="0" type="line"/>
      <point x="-491" y="0" type="line"/>
      <point x="-419" y="210" type="line"/>
      <point x="-259" y="210" type="line"/>
    </contour>
    <contour>
      <point x="-397" y="275" type="line"/>
      <point x="-335" y="455" type="line"/>
      <point x="-175" y="455" type="line"/>
      <point x="-237" y="275" type="line"/>
    </contour>
  </outline>
</glyph>
<glyph name="slash_greater.liga" format="2">
  <advance width="600"/>
  <outline>
    <contour>
      <point x="-551" y="-110" type="line"/>
      <point x="-456" y="-110" type="line"/>
      <point x="-83" y="588" type="line"/>
      <point x="361" y="355" type="line" smooth="yes"/>
      <point x="384" y="343"/>
      <point x="406" y="336"/>
      <point x="418" y="333" type="curve"/>
      <point x="406" y="330"/>
      <point x="381" y="323"/>
      <point x="354" y="311" type="curve" smooth="yes"/>
      <point x="21" y="160" type="line"/>
      <point x="6" y="65" type="line"/>
      <point x="470" y="280" type="line"/>
      <point x="486" y="380" type="line"/>
      <point x="-45" y="657" type="line"/>
      <point x="47" y="830" type="line"/>
      <point x="-48" y="830" type="line"/>
    </contour>
  </outline>
</glyph>
<glyph name="two.half" format="2">
  <advance width="400"/>
  <outline>
    <contour>
      <point x="22" y="0" type="line"/>
      <point x="302" y="0" type="line"/>
      <point x="312" y="60" type="line"/>
      <point x="139" y="60" type="line"/>
      <point x="230" y="105" type="line" smooth="yes"/>
      <point x="290" y="135"/>
      <point x="330" y="183"/>
      <point x="330" y="240" type="curve" smooth="yes"/>
      <point x="330" y="302"/>
      <point x="285" y="340"/>
      <point x="208" y="340" type="curve" smooth="yes"/>
      <point x="122" y="340"/>
      <point x="56" y="287"/>
      <point x="39" y="203" type="curve"/>
      <point x="105" y="203" type="line"/>
      <point x="113" y="251"/>
      <point x="149" y="281"/>
      <point x="199" y="281" type="curve" smooth="yes"/>
      <point x="240" y="281"/>
      <point x="262" y="262"/>
      <point x="262" y="230" type="curve" smooth="yes"/>
      <point x="262" y="194"/>
      <point x="236" y="172"/>
      <point x="200" y="153" type="curve" smooth="yes"/>
      <point x="32" y="62" type="line"/>
    </contour>
  </outline>
</glyph>
